<?xml version="1.0" encoding="UTF-8"?>
<svg width="256px" height="256px" viewBox="0 0 256 256" version="1.1" xmlns="http://www.w3.org/2000/svg" xmlns:xlink="http://www.w3.org/1999/xlink">
    <!-- Generator: Sketch 49.3 (51167) - http://www.bohemiancoding.com/sketch -->
    <title>utilities</title>
    <desc>Created with Sketch.</desc>
    <defs></defs>
    <g id="utilities" stroke="none" stroke-width="1" fill="none" fill-rule="evenodd">
        <g id="bg">
            <circle id="Oval-Copy" fill="#FF5500" cx="128" cy="128" r="128"></circle>
            <path d="M48,227.925935 C18.7372005,204.467999 0,168.422153 0,128 C0,57.307552 57.307552,0 128,0 C165.098612,0 198.510978,15.7826939 221.889017,41 L221.641505,41 C199.94208,24.0800455 172.6482,14 143,14 C72.307552,14 15,71.307552 15,142 C15,175.002098 27.4896112,205.087091 48,227.786146 L48,227.925935 Z" id="Combined-Shape" fill="#802B00"></path>
        </g>
        <path d="M80,142.928117 C80,139.532611 80.3307258,135.806448 80.9921875,131.749475 C85.490127,132.058153 89.7564905,131.176214 93.7914058,129.103642 C97.8263296,127.031069 100.990272,123.988386 103.283333,119.975508 C105.576395,115.830364 106.612681,111.508875 106.392192,107.010942 C106.171703,102.512991 104.804692,98.3899447 102.291142,94.6416667 C108.112009,89.6145495 114.902919,85.7340391 122.664058,83 C124.736647,86.748278 127.624983,89.7358429 131.329167,91.9627625 C135.03335,94.1896821 139.090255,95.3031165 143.5,95.3031165 C147.909745,95.3031165 151.955626,94.1896821 155.637763,91.9627625 C159.319899,89.7358429 162.197211,86.748278 164.269783,83 C171.942751,85.7340391 178.733644,89.6145495 184.642717,94.6416667 C182.702428,98.2135501 181.732283,102.061007 181.732283,106.184104 C181.732283,110.307218 182.790617,114.198769 184.907283,117.858841 C187.068061,121.607136 190.000508,124.517519 193.704692,126.590108 C197.408875,128.662681 201.355527,129.69895 205.544783,129.69895 C206.514928,134.152789 207,138.562466 207,142.928117 C207,145.83855 206.691322,149.211958 206.07395,153.048442 C202.016994,153.136631 198.213649,154.228018 194.663796,156.322654 C191.113959,158.417274 188.280742,161.294603 186.164058,164.954675 C183.915091,168.923459 182.845751,173.079576 182.955987,177.423179 C183.06624,181.766765 184.267864,185.768552 186.560942,189.428642 C180.607774,194.896725 174.03737,199.085918 166.849475,201.99635 C164.776903,198.203969 161.877543,195.18334 158.151296,192.93437 C154.425065,190.685401 150.357136,189.560933 145.947392,189.560933 C141.228969,189.560933 136.918504,190.828715 133.015879,193.364319 C129.113254,195.899922 126.213895,199.262301 124.317717,203.451558 C116.865238,201.070296 109.964092,197.344118 103.614058,192.272913 C106.127608,188.568728 107.483596,184.478757 107.682038,180.002854 C107.880462,175.526968 106.811122,171.216503 104.47395,167.071341 C102.0927,162.882086 98.77441,159.74019 94.5190108,157.645571 C90.2636066,155.550934 85.820857,154.768225 81.190625,155.297392 C80.3968711,151.593208 80,147.470161 80,142.928117 Z M126.632808,126.127083 C122.002575,130.757317 119.6875,136.357594 119.6875,142.928117 C119.6875,149.498639 122.013598,155.109957 126.665879,159.762237 C131.31816,164.414518 136.929477,166.740617 143.5,166.740617 C150.070523,166.740617 155.68184,164.414518 160.334121,159.762237 C164.986402,155.109957 167.3125,149.498639 167.3125,142.928117 C167.3125,136.357594 164.986402,130.746293 160.334121,126.094013 C155.68184,121.441732 150.070523,119.115617 143.5,119.115617 C136.929477,119.115617 131.307136,121.452755 126.632808,126.127083 Z" id="Page-1" fill="#802B00"></path>
        <path d="M65,127.928117 C65,124.532611 65.3307258,120.806448 65.9921875,116.749475 C70.490127,117.058153 74.7564905,116.176214 78.7914058,114.103642 C82.8263296,112.031069 85.9902721,108.988386 88.2833333,104.975508 C90.5763945,100.830364 91.6126807,96.5088753 91.3921917,92.0109417 C91.1717028,87.5129912 89.8046917,83.3899447 87.2911416,79.6416667 C93.1120088,74.6145495 99.9029189,70.7340391 107.664058,68 C109.736647,71.748278 112.624983,74.7358429 116.329167,76.9627625 C120.03335,79.1896821 124.090255,80.3031165 128.5,80.3031165 C132.909745,80.3031165 136.955626,79.1896821 140.637763,76.9627625 C144.319899,74.7358429 147.197211,71.748278 149.269783,68 C156.942751,70.7340391 163.733644,74.6145495 169.642717,79.6416667 C167.702428,83.2135501 166.732283,87.0610067 166.732283,91.184104 C166.732283,95.3072183 167.790617,99.1987692 169.907283,102.858841 C172.068061,106.607136 175.000508,109.517519 178.704692,111.590108 C182.408875,113.662681 186.355527,114.69895 190.544783,114.69895 C191.514928,119.152789 192,123.562466 192,127.928117 C192,130.83855 191.691322,134.211958 191.07395,138.048442 C187.016994,138.136631 183.213649,139.228018 179.663796,141.322654 C176.113959,143.417274 173.280742,146.294603 171.164058,149.954675 C168.915091,153.923459 167.845751,158.079576 167.955987,162.423179 C168.06624,166.766765 169.267864,170.768552 171.560942,174.428642 C165.607774,179.896725 159.03737,184.085918 151.849475,186.99635 C149.776903,183.203969 146.877543,180.18334 143.151296,177.93437 C139.425065,175.685401 135.357136,174.560933 130.947392,174.560933 C126.228969,174.560933 121.918504,175.828715 118.015879,178.364319 C114.113254,180.899922 111.213895,184.262301 109.317717,188.451558 C101.865238,186.070296 94.9640921,182.344118 88.6140583,177.272913 C91.1276084,173.568728 92.4835959,169.478757 92.6820376,165.002854 C92.8804624,160.526968 91.8111224,156.216503 89.4739499,152.071341 C87.0926999,147.882086 83.77441,144.74019 79.5190108,142.645571 C75.2636066,140.550934 70.820857,139.768225 66.190625,140.297392 C65.3968711,136.593208 65,132.470161 65,127.928117 Z M111.632808,111.127083 C107.002575,115.757317 104.6875,121.357594 104.6875,127.928117 C104.6875,134.498639 107.013598,140.109957 111.665879,144.762237 C116.31816,149.414518 121.929477,151.740617 128.5,151.740617 C135.070523,151.740617 140.68184,149.414518 145.334121,144.762237 C149.986402,140.109957 152.3125,134.498639 152.3125,127.928117 C152.3125,121.357594 149.986402,115.746293 145.334121,111.094013 C140.68184,106.441732 135.070523,104.115617 128.5,104.115617 C121.929477,104.115617 116.307136,106.452755 111.632808,111.127083 Z" id="Page-1" fill="#FFFFFF"></path>
    </g>
</svg>